<?xml version="1.0" encoding="utf-8"?>
<svg xmlns="http://www.w3.org/2000/svg" viewBox="0 0 100 100" width="400" height="400">
  <path d="M50.492188 18.224609C40.802188 18.224609 30.992188 20.413656 30.992188 24.597656L30.992188 34.738281C30.992188 35.440281 31.274297 36.085828 31.779297 36.673828C31.282297 37.257828 30.992187 37.892891 30.992188 38.587891L30.992188 48.728516C30.992188 49.540516 31.36525 50.2775 32.03125 50.9375C31.37225 51.5545 30.992188 52.238188 30.992188 52.992188C30.992188 53.080188 31.003672 53.166906 31.013672 53.253906C31.004672 53.339906 30.992188 53.425672 30.992188 53.513672L30.992188 63.652344C30.992188 67.331344 38.577094 69.467688 46.996094 69.929688L47.033203 72.96875C47.012203 73.59575 47.225391 74.160609 47.650391 74.599609C48.089391 75.052609 48.735141 75.332734 49.494141 75.427734L49.494141 80.228516C47.967141 80.449516 46.765922 81.651734 46.544922 83.177734L30.992188 83.177734C30.716188 83.177734 30.492187 83.401734 30.492188 83.677734C30.492188 83.953734 30.716188 84.177734 30.992188 84.177734L46.542969 84.177734C46.787969 85.869734 48.234187 87.177734 49.992188 87.177734C51.750187 87.177734 53.196406 85.869734 53.441406 84.177734L69.992188 84.177734C70.268187 84.177734 70.492188 83.953734 70.492188 83.677734C70.492188 83.401734 70.268188 83.179687 69.992188 83.179688L53.441406 83.179688C53.220406 81.652687 52.018187 80.451469 50.492188 80.230469L50.492188 75.435547C51.203187 75.352547 51.835969 75.077141 52.292969 74.619141C52.739969 74.171141 52.994187 73.576187 52.992188 72.992188L52.992188 69.976562C61.799188 69.633562 69.992188 67.476344 69.992188 63.652344L69.992188 53.513672C69.992188 52.628672 69.531094 51.837813 68.746094 51.132812C69.543094 50.423812 69.992188 49.621516 69.992188 48.728516L69.992188 38.587891C69.992188 37.891891 69.707938 37.254922 69.210938 36.669922C69.713938 36.081922 69.992188 35.438281 69.992188 34.738281L69.992188 24.597656C69.992188 20.413656 60.182187 18.224609 50.492188 18.224609 z M 50.492188 20.226562C61.175187 20.226562 67.992188 22.816609 67.992188 24.599609L67.992188 25.792969C65.928188 27.715969 59.317188 29.476563 50.492188 29.476562C45.684188 29.476562 41.133734 28.945469 37.677734 27.980469C37.413734 27.904469 37.1365 28.061125 37.0625 28.328125C36.9885 28.594125 37.142203 28.869359 37.408203 28.943359C40.949203 29.931359 45.596188 30.476562 50.492188 30.476562C57.470188 30.476562 64.777187 29.307656 67.992188 27.097656L67.992188 34.740234C67.992188 36.523234 61.175187 39.115234 50.492188 39.115234C39.809188 39.115234 32.992187 36.521281 32.992188 34.738281L32.992188 27.066406C33.288187 27.270406 33.614281 27.470109 33.988281 27.662109C34.236281 27.789109 34.537109 27.690313 34.662109 27.445312C34.788109 27.199313 34.690312 26.899437 34.445312 26.773438C33.831313 26.458437 33.348187 26.126969 32.992188 25.792969L32.992188 24.599609C32.992188 22.816609 39.809188 20.226562 50.492188 20.226562 z M 35.521484 27.490234C35.326766 27.501859 35.149078 27.627266 35.080078 27.822266C34.988078 28.083266 35.124766 28.368937 35.384766 28.460938L35.707031 28.572266C35.760031 28.590266 35.814188 28.597656 35.867188 28.597656C36.075187 28.597656 36.270797 28.466813 36.341797 28.257812C36.430797 27.996813 36.289344 27.713 36.027344 27.625L35.71875 27.519531C35.65325 27.496531 35.586391 27.486359 35.521484 27.490234 z M 33.300781 37.912109C36.770781 40.021109 43.658187 41.111328 50.492188 41.111328C57.323188 41.111328 64.208688 40.021062 67.679688 37.914062C67.876688 38.146062 67.992187 38.374844 67.992188 38.589844L67.992188 39.787109C67.503187 40.244109 66.764016 40.694281 65.791016 41.113281C65.537016 41.222281 65.420297 41.515531 65.529297 41.769531C65.638297 42.023531 65.934547 42.13825 66.185547 42.03125C66.901547 41.72325 67.495188 41.397641 67.992188 41.056641L67.992188 48.728516C67.992188 50.511516 61.175187 53.103516 50.492188 53.103516C39.809188 53.103516 32.992187 50.512516 32.992188 48.728516L32.992188 41.085938C36.207188 43.295938 43.514187 44.464844 50.492188 44.464844C54.445188 44.464844 58.233312 44.112312 61.445312 43.445312C61.715313 43.389313 61.889031 43.125469 61.832031 42.855469C61.775031 42.584469 61.510187 42.409797 61.242188 42.466797C58.096187 43.119797 54.378187 43.464844 50.492188 43.464844C41.667188 43.464844 35.056187 41.70425 32.992188 39.78125L32.992188 38.587891C32.992188 38.372891 33.105781 38.145109 33.300781 37.912109 z M 63.091797 41.933594C63.02725 41.925281 62.959578 41.929016 62.892578 41.947266L62.445312 42.068359C62.178312 42.138359 62.019844 42.412688 62.089844 42.679688C62.148844 42.903688 62.351266 43.052734 62.572266 43.052734C62.614266 43.052734 62.658172 43.047156 62.701172 43.035156L63.162109 42.910156C63.428109 42.835156 63.583766 42.557969 63.509766 42.292969C63.453516 42.094219 63.285437 41.958531 63.091797 41.933594 z M 33.951172 52.267578C37.586172 54.137578 44.063188 55.103516 50.492188 55.103516C56.920187 55.103516 63.398203 54.137578 67.033203 52.267578C67.542203 52.619578 67.835594 52.968875 67.933594 53.296875C67.337594 55.577875 60.148188 57.992187 49.992188 57.992188C41.662188 57.992188 35.334188 56.366437 32.992188 54.523438L32.992188 53.513672C32.992188 53.125672 33.330172 52.697578 33.951172 52.267578 z M 67.992188 55.025391L67.992188 63.652344C67.992188 65.435344 61.175187 68.027344 50.492188 68.027344C39.809188 68.027344 32.992187 65.435344 32.992188 63.652344L32.992188 55.787109C36.323188 57.884109 43.308188 58.992187 49.992188 58.992188C57.445188 58.992188 65.274188 57.615391 67.992188 55.025391 z M 47.998047 70.179688L51.992188 70.179688L51.992188 72.992188C51.993187 73.314188 51.844984 73.649156 51.583984 73.910156C51.223984 74.271156 50.682594 74.472656 50.058594 74.472656C49.323594 74.472656 48.723141 74.270297 48.369141 73.904297C48.133141 73.662297 48.01925 73.358469 48.03125 72.980469L47.998047 70.179688 z M 49.992188 81.179688C51.370188 81.179688 52.492188 82.301687 52.492188 83.679688C52.492188 85.057688 51.371188 86.179688 49.992188 86.179688C48.614187 86.179688 47.492188 85.057688 47.492188 83.679688C47.492188 82.301687 48.614188 81.179688 49.992188 81.179688 z" fill="#FFDB70" />
</svg>