<?xml version="1.0" encoding="utf-8"?>
<svg xmlns="http://www.w3.org/2000/svg" viewBox="0 0 64 64" width="512" height="512">
  <path d="M10 2L10 60L31.628906 60C30.971906 58.785 30.934234 57.284203 31.615234 56.033203L31.964844 55.392578C31.852844 55.144578 31.749297 54.893578 31.654297 54.642578L29.378906 53.898438L28 53.447266L28 51.996094L28 49.490234C28 47.663234 29.223609 46.026766 30.974609 45.509766L31.673828 45.302734C31.769828 45.046734 31.873375 44.794828 31.984375 44.548828L30.904297 42.416016L30.248047 41.123047L31.273438 40.097656L33.044922 38.326172C33.829922 37.541172 34.872422 37.109375 35.982422 37.109375C36.673422 37.109375 37.359797 37.285234 37.966797 37.615234L38.609375 37.964844C38.857375 37.852844 39.106422 37.747344 39.357422 37.652344L40.103516 35.376953L40.552734 34L42.003906 34L44.509766 34C46.336766 34 47.973234 35.223609 48.490234 36.974609L48.697266 37.673828C48.953266 37.769828 49.205172 37.873375 49.451172 37.984375L51.583984 36.904297L52.876953 36.248047L53.902344 37.273438L54 37.371094L54 2L10 2 z M 48.939453 6.9394531L51.060547 9.0605469L43 17.121094L37.939453 12.060547L40.060547 9.9394531L43 12.878906L48.939453 6.9394531 z M 16 11L34 11L34 14L16 14L16 11 z M 48.939453 18.939453L51.060547 21.060547L43 29.121094L37.939453 24.060547L40.060547 21.939453L43 24.878906L48.939453 18.939453 z M 16 23L34 23L34 26L16 26L16 23 z M 16 36L27 36L27 39L16 39L16 36 z M 42.003906 36L40.945312 39.232422C40.108312 39.469422 39.315313 39.806703 38.570312 40.220703L37.011719 39.373047C36.173719 38.917047 35.133984 39.067188 34.458984 39.742188L32.6875 41.513672L34.222656 44.542969C33.806656 45.286969 33.482141 46.086828 33.244141 46.923828L31.542969 47.427734C30.628969 47.697734 30 48.537234 30 49.490234L30 51.996094L33.232422 53.054688C33.469422 53.891688 33.806703 54.684687 34.220703 55.429688L33.373047 56.988281C32.917047 57.826281 33.067188 58.866016 33.742188 59.541016L35.513672 61.3125L38.542969 59.777344C39.286969 60.193344 40.087828 60.517859 40.923828 60.755859L41.425781 62.455078C41.696781 63.371078 42.537187 64 43.492188 64L45.996094 64L47.054688 60.767578C47.891688 60.530578 48.684687 60.193297 49.429688 59.779297L50.988281 60.626953C51.826281 61.082953 52.866016 60.932813 53.541016 60.257812L55.3125 58.486328L53.775391 55.457031C54.192391 54.713031 54.515906 53.912172 54.753906 53.076172L56.457031 52.572266C57.372031 52.302266 58 51.461813 58 50.507812L58 48.003906L54.767578 46.945312C54.530578 46.108312 54.193297 45.315313 53.779297 44.570312L54.626953 43.011719C55.082953 42.173719 54.932813 41.133984 54.257812 40.458984L52.486328 38.6875L49.457031 40.222656C48.713031 39.806656 47.913172 39.482141 47.076172 39.244141L46.572266 37.542969C46.302266 36.628969 45.462766 36 44.509766 36L42.003906 36 z M 44 44C47.314 44 50 46.686 50 50C50 53.314 47.314 56 44 56C40.686 56 38 53.314 38 50C38 46.686 40.686 44 44 44 z M 16 49L23 49L23 52L16 52L16 49 z" fill="#FFDB70" />
</svg>