<?xml version="1.0" encoding="utf-8"?>
<svg xmlns="http://www.w3.org/2000/svg" viewBox="0 0 128 128" width="512" height="512">
  <path d="M42 6C34.8 6 29 11.8 29 19L29 72C29 73.7 30.3 75 32 75C33.7 75 35 73.7 35 72L35 19C35 15.1 38.1 12 42 12L93 12L93 19C93 26.2 98.8 32 106 32L116 32C117.7 32 119 30.7 119 29C119 22.9 116.60078 17.099219 112.30078 12.699219C107.90078 8.3992188 102.1 6 96 6L42 6 z M 99 12.300781C102.4 12.900781 105.5 14.5 108 17C110.5 19.5 112.09922 22.6 112.69922 26L106 26C102.1 26 99 22.9 99 19L99 12.300781 z M 116 40C114.3 40 113 41.3 113 43L113 109C113 112.9 109.9 116 106 116C104.3 116 103 117.3 103 119C103 120.7 104.3 122 106 122C113.2 122 119 116.2 119 109L119 43C119 41.3 117.7 40 116 40 z M 61 54C57.9 54 54.799219 55.299219 52.699219 57.699219C50.599219 59.999219 49.600391 63.200781 49.900391 66.300781L51.5 81.800781C51.6 82.600781 51.2 83.100781 51 83.300781C50.7 83.600781 50.2 84 49.5 84L37 84C32.6 84 29 87.6 29 92L29 109C29 112.9 25.9 116 22 116C20.3 116 19 117.3 19 119C19 120.7 20.3 122 22 122L80 122C87.2 122 93 116.2 93 109L93 92C93 87.6 89.4 84 85 84L72.5 84C71.7 84 71.2 83.600781 71 83.300781C70.8 83.100781 70.4 82.500781 70.5 81.800781L72.099609 66.300781C72.399609 63.200781 71.400781 59.999219 69.300781 57.699219C67.200781 55.299219 64.1 54 61 54 z M 60.900391 60C62.400391 60 63.699219 60.599219 64.699219 61.699219C65.699219 62.799219 66.2 64.199219 66 65.699219L64.400391 81.199219C64.200391 83.399219 64.900391 85.700391 66.400391 87.400391C67.900391 89.100391 70.100781 90 72.300781 90L85 90C86.1 90 87 90.9 87 92L87 99L35 99L35 92C35 90.9 35.9 90 37 90L49.5 90C51.7 90 53.900391 89.000391 55.400391 87.400391C56.900391 85.700391 57.700391 83.499219 57.400391 81.199219L55.800781 65.699219C55.700781 64.199219 56.099609 62.799219 57.099609 61.699219C58.099609 60.599219 59.400391 60 60.900391 60 z M 35 105L87 105L87 109C87 112.9 83.9 116 80 116L33 116C34.3 114 35 111.6 35 109L35 105 z" fill="#FFDB70" />
</svg>