<?xml version="1.0" encoding="utf-8"?>
<svg xmlns="http://www.w3.org/2000/svg" viewBox="0 0 64 64" width="512" height="512">
  <path d="M31.880859 3C27.661475 3.013642 23.379516 3.9528594 19.330078 5.9199219C12.416078 9.2789219 7.1204219 15.247719 4.6074219 22.511719C-0.63657812 37.637719 7.3749531 54.149578 22.501953 59.392578C37.628953 64.635578 54.140766 56.624047 59.384766 41.498047C61.928766 34.228047 61.453453 26.240266 58.064453 19.322266C53.036797 8.9744219 42.663731 2.9651371 31.880859 3 z M 31.533203 4.9863281C34.613636 4.9329984 37.755719 5.4107969 40.835938 6.4785156C47.596938 8.8225156 53.151391 13.755359 56.275391 20.193359C59.400391 26.631359 59.837141 34.048547 57.494141 40.810547C52.613141 54.890547 37.243109 62.34875 23.162109 57.46875C9.0811094 52.58875 1.6239062 37.217719 6.5039062 23.136719C10.316406 12.135938 20.531658 5.1767914 31.533203 4.9863281 z M 31.638672 8.3183594C30.803672 8.3063594 29.968719 8.3399688 29.136719 8.4179688C28.584719 8.4359688 28.152875 8.8982188 28.171875 9.4492188C28.189875 10.001219 28.652125 10.433063 29.203125 10.414062C29.244125 10.413063 29.287125 10.409344 29.328125 10.402344C30.080125 10.324344 30.834844 10.286063 31.589844 10.289062C32.136844 10.213062 32.517406 9.7081094 32.441406 9.1621094C32.382406 8.7381094 32.059672 8.3983594 31.638672 8.3183594 z M 25.052734 9.2421875C24.923656 9.2280156 24.7885 9.2397969 24.65625 9.2792969C17.61925 11.420297 12.025656 16.787469 9.5976562 23.730469C9.4016563 24.246469 9.6617344 24.823531 10.177734 25.019531C10.693734 25.215531 11.270797 24.957406 11.466797 24.441406C11.473797 24.424406 11.479375 24.406672 11.484375 24.388672L11.449219 24.423828C13.664219 18.065828 18.787469 13.147359 25.230469 11.193359C25.759469 11.035359 26.058391 10.478219 25.900391 9.9492188C25.781891 9.5524687 25.439969 9.2847031 25.052734 9.2421875 z M 44.9375 14.75C42.5555 14.75 40.626953 16.6805 40.626953 19.0625C40.626953 21.4445 42.5565 23.376953 44.9375 23.376953C45.5515 23.376953 46.133109 23.243719 46.662109 23.011719L43.498047 19.742188C43.432047 19.674187 43.396391 19.581328 43.400391 19.486328C43.403391 19.391328 43.446578 19.301281 43.517578 19.238281L47.535156 15.640625C46.811156 15.089625 45.9175 14.75 44.9375 14.75 z M 48.0625 16.105469L44.253906 19.517578L47.298828 22.664062C48.471828 21.893062 49.248047 20.5715 49.248047 19.0625C49.248047 17.9145 48.7935 16.878469 48.0625 16.105469 z M 47.982422 18.152344C48.117234 18.144234 48.249953 18.21475 48.314453 18.34375C48.332453 18.38075 48.7595 19.26225 48.1875 20.40625C48.1265 20.52925 48.003 20.599609 47.875 20.599609C47.823 20.599609 47.76875 20.5875 47.71875 20.5625C47.54575 20.4765 47.4755 20.26775 47.5625 20.09375C47.9715 19.27675 47.6985 18.677344 47.6875 18.652344C47.6055 18.479344 47.677609 18.2715 47.849609 18.1875C47.892609 18.16675 47.937484 18.155047 47.982422 18.152344 z M 39.408203 21.658203C38.765203 21.685953 38.0355 21.842 37.25 22.125C34.125 23.25 30.375 27.375 30.375 27.375L27.367188 30.863281L29.835938 33.289062L41.044922 21.962891C40.607422 21.731891 40.051203 21.630453 39.408203 21.658203 z M 41.601562 22.396484L30.333984 33.78125L31.789062 35.212891L40.25 26.630859C40.275 26.606859 42.099766 24.806031 42.009766 23.207031C41.926766 22.890031 41.791562 22.615484 41.601562 22.396484 z M 41.771484 25.876953C41.285484 26.589953 40.785188 27.085953 40.742188 27.126953L32.287109 35.701172L33.410156 36.806641C33.524156 36.702641 33.634047 36.606 33.748047 36.5C39.841047 30.85 41.123484 28.439953 41.771484 25.876953 z M 26.908203 31.394531L24.125 34.625L29.228516 33.675781L26.908203 31.394531 z M 29.720703 34.158203L27.962891 35.978516L31.083984 35.498047L29.720703 34.158203 z M 31.705078 36.111328L27.160156 36.810547L18.828125 45.433594L22.324219 48.871094L22.5 48.875L21.625 45.25C21.625 45.25 26.445578 43.060391 32.892578 37.275391L31.705078 36.111328 z M 51.742188 37.121094C51.358984 37.191078 51.037266 37.482469 50.947266 37.886719C50.834266 38.393719 51.127047 38.903594 51.623047 39.058594L53.552734 39.574219C54.091734 39.694219 54.626094 39.355406 54.746094 38.816406C54.859094 38.309406 54.564359 37.799531 54.068359 37.644531L52.140625 37.128906C52.005875 37.098906 51.869922 37.097766 51.742188 37.121094 z M 50.042969 41.828125C49.654844 41.794 49.265766 41.990219 49.072266 42.355469C48.826266 42.819469 48.981734 43.394875 49.427734 43.671875L51.158203 44.667969C51.640203 44.942969 52.254297 44.774969 52.529297 44.292969C52.804297 43.810969 52.636297 43.196875 52.154297 42.921875L50.423828 41.941406C50.301828 41.876656 50.172344 41.8395 50.042969 41.828125 z M 46.832031 45.832031C46.576406 45.832031 46.322453 45.93 46.126953 46.125C45.736953 46.515 45.736953 47.147109 46.126953 47.537109L47.539062 48.951172C47.929063 49.341172 48.561172 49.341172 48.951172 48.951172C49.341172 48.561172 49.341172 47.927109 48.951172 47.537109L47.539062 46.125C47.344063 45.93 47.087656 45.832031 46.832031 45.832031 z M 18.341797 45.9375L15.625 48.75L21.308594 48.853516L18.341797 45.9375 z M 42.669922 48.9375C42.541453 48.953781 42.415875 48.995453 42.296875 49.064453C41.821875 49.342453 41.659547 49.953688 41.935547 50.429688L42.925781 52.152344C43.184781 52.640344 43.788391 52.825406 44.275391 52.566406C44.763391 52.307406 44.948453 51.703797 44.689453 51.216797C44.678453 51.196797 44.66825 51.17525 44.65625 51.15625L43.660156 49.425781C43.451656 49.068781 43.055328 48.888656 42.669922 48.9375 z M 38.236328 50.886719C38.107875 50.867922 37.975297 50.873453 37.841797 50.908203C37.839797 50.909203 37.838891 50.908203 37.837891 50.908203C37.304891 51.050203 36.985906 51.599813 37.128906 52.132812C37.129906 52.134813 37.129859 52.135672 37.130859 52.138672L37.646484 54.068359C37.811484 54.595359 38.372437 54.887656 38.898438 54.722656C39.394438 54.567656 39.689172 54.059734 39.576172 53.552734L39.060547 51.623047C38.956297 51.222547 38.621688 50.943109 38.236328 50.886719 z" fill="#FFDB70" />
</svg>