<?xml version="1.0" encoding="utf-8"?>
<svg xmlns="http://www.w3.org/2000/svg" viewBox="0 0 128 128" width="512" height="512">
  <path d="M121 6H67V4c0-1.7-1.3-3-3-3-1.7 0-3 1.3-3 3v2H7C5.3 6 4 7.3 4 9v73c0 7.2 5.8 13 13 13h94c7.2 0 13-5.8 13-13V9C124 7.3 122.7 6 121 6zM28.1 74.1l-4 4C23.5 78.7 22.8 79 22 79s-1.5-.3-2.1-.9c-1.2-1.2-1.2-3.1 0-4.2l4-4c1.2-1.2 3.1-1.2 4.2 0C29.3 71.1 29.3 73 28.1 74.1zM110 51c0 1.7-1.3 3-3 3s-3-1.3-3-3V38.2L78.4 63.9c-3.5 3.5-9.2 3.5-12.7 0L54.1 52.4c-1.2-1.2-3.1-1.2-4.2 0L39.1 63.1C38.5 63.7 37.7 64 37 64s-1.5-.3-2.1-.9c-1.2-1.2-1.2-3.1 0-4.2l10.8-10.8c3.5-3.5 9.2-3.5 12.7 0l11.5 11.5c1.2 1.2 3.1 1.2 4.2 0L99.8 34H87c-1.7 0-3-1.3-3-3s1.3-3 3-3h20c1.7 0 3 1.3 3 3V51zM66.1 101.9c-.1-.1-.3-.3-.5-.4-.1 0-.1-.1-.2-.1-.1-.1-.2-.1-.3-.2-.1 0-.2-.1-.3-.1-.1 0-.2-.1-.3-.1-.2 0-.4-.1-.6-.1 0 0 0 0 0 0h0c-.2 0-.4 0-.6.1-.1 0-.2 0-.2.1-.1 0-.2.1-.3.1-.1 0-.2.1-.3.1-.1 0-.2.1-.2.1-.2.1-.3.2-.5.4l-20 20c-1.2 1.2-1.2 3.1 0 4.2.6.6 1.4.9 2.1.9s1.5-.3 2.1-.9L61 111.2V124c0 1.7 1.3 3 3 3 1.7 0 3-1.3 3-3v-12.8l14.9 14.9c.6.6 1.4.9 2.1.9s1.5-.3 2.1-.9c1.2-1.2 1.2-3.1 0-4.2L66.1 101.9z" fill="#FFDB70" />
</svg>