<?xml version="1.0" encoding="utf-8"?>
<svg xmlns="http://www.w3.org/2000/svg" viewBox="0 0 64 64" width="512" height="512">
  <path d="M12.568359 4C11.440359 4 10.314031 4.3356094 9.3320312 5.0996094C7.8320312 6.0996094 7 7.7666094 7 9.5996094L7 31C7 31.552 7.448 32 8 32C8.552 32 9 31.552 9 31L9 9.5996094C9 8.4086094 9.5263594 7.3746719 10.443359 6.7636719L10.503906 6.7226562L10.5625 6.6777344C11.1395 6.2287344 11.815359 6 12.568359 6C12.957359 6 13.357375 6.0608281 13.734375 6.1738281L52.486328 18.349609C54.577328 19.006609 56 20.945719 56 23.136719L56 50.152344C56 52.266344 54.2895 53.986328 52.1875 53.986328C51.8135 53.986328 51.436359 53.929359 51.068359 53.818359C49.248359 53.267359 47.308828 52.673641 45.298828 52.056641C44.655828 51.858641 44 52.339719 44 53.011719C44 53.450719 44.290937 53.83975 44.710938 53.96875C46.719938 54.58675 48.662281 55.179422 50.488281 55.732422C51.058281 55.904422 51.6295 55.986328 52.1875 55.986328C55.2925 55.986328 58 53.467344 58 50.152344L58 23.136719C58 20.071719 56.010938 17.360406 53.085938 16.441406L14.332031 4.265625C13.757031 4.092625 13.163359 4 12.568359 4 z M 46 22C45.448 22 45 22.448 45 23C45 23.552 45.448 24 46 24L48 24C48.552 24 49 23.552 49 23C49 22.448 48.552 22 48 22L46 22 z M 38.6875 23.005859C36.6695 22.899859 35 24.505 35 26.5L35 38L35 48.865234L35 50.960938L35 56.367188C35 58.262188 36.4195 59.961547 38.3125 60.060547C40.3305 60.166547 42 58.559453 42 56.564453L42 56L42 53.134766L42 51.039062L42 49L42 26.697266C42 24.802266 40.5805 23.104859 38.6875 23.005859 z M 38.5 25C39.327 25 40 25.673 40 26.5L40 56.564453C40 57.391453 39.327 58.064453 38.5 58.064453C37.673 58.064453 37 57.391453 37 56.564453L37 26.5C37 25.673 37.673 25 38.5 25 z M 28.5 27C26.567 27 25 28.567 25 30.5L25 38L25 45.728516L25 47.826172L25 52L25 53.5C25 55.433 26.567 57 28.5 57C30.433 57 32 55.433 32 53.5L32 50.023438L32 47.927734L32 38L32 30.5C32 28.567 30.433 27 28.5 27 z M 46 27C45.448 27 45 27.448 45 28C45 28.552 45.448 29 46 29L48 29C48.552 29 49 28.552 49 28C49 27.448 48.552 27 48 27L46 27 z M 28.5 29C29.327 29 30 29.673 30 30.5L30 53.5C30 54.327 29.327 55 28.5 55C27.673 55 27 54.327 27 53.5L27 30.5C27 29.673 27.673 29 28.5 29 z M 18.5 31C16.567 31 15 32.567 15 34.5L15 38L15 42.570312L15 44.667969L15 49.5C15 51.433 16.567 53 18.5 53C20.433 53 22 51.433 22 49.5L22 46.880859L22 44.783203L22 38L22 34.5C22 32.567 20.433 31 18.5 31 z M 46 32C45.448 32 45 32.448 45 33C45 33.552 45.448 34 46 34L48 34C48.552 34 49 33.552 49 33C49 32.448 48.552 32 48 32L46 32 z M 18.5 33C19.327 33 20 33.673 20 34.5L20 49.5C20 50.327 19.327 51 18.5 51C17.673 51 17 50.327 17 49.5L17 34.5C17 33.673 17.673 33 18.5 33 z M 8.5 34C6.567 34 5 35.567 5 37.5L5 45.302734C5 47.197734 6.4195 48.895141 8.3125 48.994141C10.3305 49.100141 12 47.495 12 45.5L12 43.716797L12 41.617188L12 37.5C12 35.567 10.433 34 8.5 34 z M 8.5 36C9.327 36 10 36.673 10 37.5L10 45.5C10 46.327 9.327 47 8.5 47C7.673 47 7 46.327 7 45.5L7 37.5C7 36.673 7.673 36 8.5 36 z M 46 37C45.448 37 45 37.448 45 38C45 38.552 45.448 39 46 39L48 39C48.552 39 49 38.552 49 38C49 37.448 48.552 37 48 37L46 37 z M 46 42C45.448 42 45 42.448 45 43C45 43.552 45.448 44 46 44L48 44C48.552 44 49 43.552 49 43C49 42.448 48.552 42 48 42L46 42 z M 46 47C45.448 47 45 47.448 45 48C45 48.552 45.448 49 46 49L48 49C48.552 49 49 48.552 49 48C49 47.448 48.552 47 48 47L46 47 z" fill="#FFDB70" />
</svg>