<?xml version="1.0" encoding="utf-8"?>
<svg xmlns="http://www.w3.org/2000/svg" viewBox="0 0 100 100" width="400" height="400">
  <path d="M46.5 13C29.66753 13 16 26.66753 16 43.5C16 45.08456 16.127178 46.637389 16.359375 48.152344 A 1.0001 1.0001 0 0 0 16.460938 48.458984C17.162118 52.745634 18.709215 56.751353 21.005859 60.240234 A 1.0001 1.0001 0 0 0 21.007812 60.240234C24.204289 65.092704 26 70.712066 26 76.498047L26 87 A 1.0001 1.0001 0 1 0 28 87L28 76.498047C28 70.298028 26.075212 64.298155 22.677734 59.140625C20.481521 55.804311 18.98575 51.973502 18.355469 47.849609 A 1.0001 1.0001 0 0 0 18.326172 47.71875C18.12055 46.338167 18 44.93364 18 43.5C18 27.74847 30.74847 15 46.5 15C60.912423 15 72.802045 25.683415 74.722656 39.556641C74.805716 40.155166 74.988854 40.749811 75.292969 41.300781 A 1.0001 1.0001 0 0 0 75.308594 41.328125L81.816406 52.279297C82.224313 52.966085 81.955116 53.813938 81.224609 54.138672L74.59375 57.085938 A 1.0001 1.0001 0 0 0 74 58L74 66C74 70.982593 69.982593 75 65 75L59.535156 75L59.5 75L59 75L50.5 75 A 0.50005 0.50005 0 1 0 50.5 76L58 76L58 87 A 1.0001 1.0001 0 1 0 60 87L60 77L65 77C71.063407 77 76 72.063407 76 66L76 58.650391L82.037109 55.966797C83.830602 55.169531 84.537249 52.945024 83.535156 51.257812L77.044922 40.333984L77.044922 40.332031C76.871533 40.017441 76.757928 39.662083 76.705078 39.28125C74.656192 24.481451 61.978604 13.085724 46.642578 13.013672 A 1.0001 1.0001 0 0 0 46.5 13 z M 46.992188 26.015625C46.090813 26.01575 45.195 26.088875 44.3125 26.234375C43.5815 26.356375 43.060656 27.004281 43.097656 27.738281C43.156656 29.039281 42.741031 29.778938 41.707031 30.210938C40.664031 30.650937 39.842844 30.424797 38.964844 29.466797C38.461844 28.901797 37.625297 28.817719 37.029297 29.261719C35.563297 30.323719 34.284328 31.608266 33.236328 33.072266C32.794328 33.671266 32.877875 34.502047 33.421875 34.998047C34.350875 35.862047 34.578594 36.661875 34.183594 37.671875C33.768594 38.730875 33.014797 39.173859 31.716797 39.130859C30.983797 39.094859 30.352281 39.636469 30.238281 40.355469C29.953281 42.118469 29.957 43.925562 30.25 45.726562C30.366 46.440562 31.013797 46.982219 31.716797 46.949219C32.972797 46.910219 33.700953 47.334984 34.126953 48.333984C34.561953 49.362984 34.351594 50.180547 33.433594 51.060547C32.909594 51.554547 32.829906 52.37075 33.253906 52.96875C34.326906 54.44475 35.606594 55.721672 37.058594 56.763672L37.060547 56.761719L37.330078 56.914062C37.847078 57.130063 38.479172 57.022125 38.826172 56.703125C38.901172 56.648125 39.009875 56.561813 39.046875 56.507812C39.758875 55.761813 40.731031 55.511422 41.582031 55.857422L41.712891 55.910156L41.714844 55.910156C42.573844 56.312156 43.055062 57.110953 43.039062 58.126953C43.036063 59.019953 43.608187 59.679641 44.492188 59.806641C45.312187 59.930641 46.143328 59.992188 46.986328 59.992188C47.793328 59.992188 48.611406 59.934406 49.441406 59.816406L49.664062 59.773438C50.363062 59.654438 50.869141 59.0485 50.869141 58.3125C50.846141 57.1415 51.206125 56.454578 52.078125 56.017578C53.162125 55.469578 54.040813 55.65825 55.007812 56.65625C55.504813 57.16525 56.315578 57.236266 56.892578 56.822266C58.366578 55.773266 59.652844 54.503828 60.714844 53.048828L60.71875 53.042969C61.13875 52.457969 61.063969 51.640625 60.542969 51.140625C59.628969 50.265625 59.406781 49.465797 59.800781 48.466797C60.218781 47.411797 60.947484 46.970719 62.271484 47.011719C62.928484 47.026719 63.523078 46.607375 63.705078 45.984375C64.092078 44.723375 64.101703 41.301828 63.720703 40.173828C63.514703 39.562828 62.91925 39.158547 62.28125 39.185547C60.98825 39.234547 60.273703 38.819109 59.845703 37.787109C59.412703 36.747109 59.643094 35.921438 60.621094 35.023438C61.162094 34.522437 61.248312 33.696469 60.820312 33.105469C59.748312 31.610469 58.464719 30.321391 57.011719 29.275391C56.408719 28.834391 55.573313 28.920422 55.070312 29.482422C54.034312 30.642422 53.126203 30.514406 52.533203 30.316406C51.354203 29.919406 50.875547 29.147562 50.935547 27.726562C50.963547 26.979563 50.429031 26.335422 49.707031 26.232422C48.800031 26.087422 47.893562 26.0155 46.992188 26.015625 z M 47.003906 28.015625C47.643531 28.015875 48.287547 28.059078 48.935547 28.142578C49.010547 30.693578 50.562438 31.764844 51.898438 32.214844C53.016437 32.587844 54.640797 32.685781 56.216797 31.175781C57.223797 31.951781 58.129922 32.863484 58.919922 33.896484C57.293922 35.626484 57.505047 37.367688 57.998047 38.554688C58.489047 39.737687 59.562344 41.1165 61.902344 41.1875C62.033344 42.1005 62.038953 44.004578 61.876953 45.017578C59.486953 45.115578 58.417453 46.525422 57.939453 47.732422C57.489453 48.874422 57.304266 50.551328 58.822266 52.236328C58.034266 53.246328 57.11975 54.148734 56.09375 54.927734C54.23275 53.258734 52.410641 53.611469 51.181641 54.230469C49.735641 54.955469 48.960953 56.187906 48.876953 57.878906C47.589953 58.037906 46.305156 58.031281 45.035156 57.863281C44.966156 56.117281 43.991531 54.694391 42.394531 54.025391L42.199219 53.951172C40.737219 53.417172 39.143047 53.748953 37.873047 54.876953C36.857047 54.101953 35.944344 53.189062 35.152344 52.164062C36.697344 50.445063 36.465703 48.726687 35.970703 47.554688C35.483703 46.411687 34.432109 45.075984 32.162109 44.958984C31.991109 43.672984 31.986391 42.389906 32.150391 41.128906C34.516391 41.018906 35.574828 39.608344 36.048828 38.402344C36.499828 37.248344 36.682812 35.560812 35.132812 33.882812C35.910812 32.862813 36.813031 31.951109 37.832031 31.162109C39.557031 32.781109 41.298375 32.554688 42.484375 32.054688C43.664375 31.561688 45.035516 30.486625 45.103516 28.140625C45.730016 28.058125 46.364281 28.015375 47.003906 28.015625 z M 47 35C44.026 35 41.314828 36.634625 39.923828 39.265625C39.794828 39.509625 39.888813 39.812406 40.132812 39.941406C40.206812 39.980406 40.286234 40 40.365234 40C40.544234 40 40.718594 39.902422 40.808594 39.732422C41.368175 38.673954 42.178451 37.811518 43.136719 37.175781L43.880859 40.525391C43.337612 41.208427 43 42.061247 43 43C43 44.062185 43.42204 45.02336 44.099609 45.740234L41.75 47.621094C40.960206 46.727438 40.389686 45.628283 40.140625 44.400391C40.085625 44.129391 39.823781 43.956766 39.550781 44.009766C39.279781 44.064766 39.105156 44.328609 39.160156 44.599609C39.912156 48.307609 43.21 51 47 51C48.112 51 49.187219 50.775984 50.199219 50.333984C50.452219 50.223984 50.567031 49.928781 50.457031 49.675781C50.347031 49.421781 50.053781 49.306969 49.800781 49.417969C48.915781 49.803969 47.974 50 47 50C46.525651 50 46.060828 49.947558 45.609375 49.855469L47.457031 46.953125C49.162653 46.755688 50.545639 45.499421 50.904297 43.847656L53.775391 44.71875C53.435196 46.055514 52.713444 47.280666 51.667969 48.216797C51.461969 48.400797 51.442953 48.717828 51.626953 48.923828C51.726953 49.034828 51.863 49.089844 52 49.089844C52.119 49.089844 52.237984 49.048891 52.333984 48.962891C54.028984 47.446891 55.001953 45.272 55.001953 43C55.001953 41.253 54.447391 39.592219 53.400391 38.199219C53.235391 37.977219 52.922172 37.934609 52.701172 38.099609C52.479172 38.265609 52.435563 38.579781 52.601562 38.800781C53.516563 40.019781 54 41.471 54 43C54 43.245231 53.986423 43.488773 53.960938 43.730469L50.982422 42.826172C50.890771 40.739467 49.204539 39.069646 47.109375 39.011719L47.441406 36.021484C47.764175 36.04163 48.085058 36.076734 48.400391 36.140625C48.672391 36.195625 48.935234 36.019047 48.990234 35.748047C49.044234 35.478047 48.870609 35.215156 48.599609 35.160156C48.075609 35.054156 47.538 35 47 35 z M 50.542969 35.867188C50.348578 35.850266 50.154141 35.947109 50.056641 36.130859C49.927641 36.374859 50.022625 36.677641 50.265625 36.806641C50.594625 36.979641 50.907219 37.178438 51.199219 37.398438C51.289219 37.466437 51.395 37.5 51.5 37.5C51.651 37.5 51.800438 37.431781 51.898438 37.300781C52.064438 37.079781 52.021781 36.765609 51.800781 36.599609C51.466781 36.348609 51.108375 36.121828 50.734375 35.923828C50.673125 35.891828 50.607766 35.872828 50.542969 35.867188 z M 46.433594 36.039062L46.091797 39.113281C45.594878 39.229577 45.133347 39.434123 44.726562 39.716797L44.046875 36.662109C44.789473 36.316288 45.594901 36.106926 46.433594 36.039062 z M 47 41C48.103 41 49 41.897 49 43C49 44.103 48.103 45 47 45C45.897 45 45 44.103 45 43C45 41.897 45.897 41 47 41 z M 44.894531 46.386719C45.314514 46.648862 45.782511 46.836242 46.287109 46.927734L44.603516 49.574219C43.819698 49.286941 43.104018 48.856861 42.474609 48.322266L44.894531 46.386719 z M 37.625 55.107422C37.597 55.136422 37.568063 55.165312 37.539062 55.195312C37.569034 55.158983 37.588804 55.137357 37.591797 55.132812C37.60287 55.124135 37.613794 55.115062 37.625 55.107422 z M 46.5 75 A 0.50005 0.50005 0 1 0 46.5 76L48.5 76 A 0.50005 0.50005 0 1 0 48.5 75L46.5 75 z" fill="#FFDB70" />
</svg>